HIERARCHY
ROOT Hips
{
	OFFSET 0.000000 0.000000 0.000000
	CHANNELS 6 Xposition Yposition Zposition Zrotation Yrotation Xrotation 
	JOINT LeftUpLeg_virtual
	{
		OFFSET 0.000000 0.000000 0.000000
		CHANNELS 3 Zrotation Yrotation Xrotation
		JOINT LeftUpLeg
		{
			OFFSET 8.479694 -4.795517 -0.379053
			CHANNELS 3 Zrotation Yrotation Xrotation
			JOINT LeftLeg
			{
				OFFSET 0.485052 -32.551468 0.112863
				CHANNELS 3 Zrotation Yrotation Xrotation
				JOINT LeftFoot
				{
					OFFSET 0.438033 -32.635670 -3.012641
					CHANNELS 3 Zrotation Yrotation Xrotation
					JOINT LeftToeBase
					{
						OFFSET 0.970169 -13.225353 11.864223
						CHANNELS 3 Zrotation Yrotation Xrotation
						End Site
						{
							OFFSET 0.000000 0.000000 0.000000
						}
					}
				}
			}
		}
	}
	JOINT RightUpLeg_virtual
	{
		OFFSET 0.000000 0.000000 0.000000
		CHANNELS 3 Zrotation Yrotation Xrotation
		JOINT RightUpLeg
		{
			OFFSET -8.479694 -4.795517 -0.379053
			CHANNELS 3 Zrotation Yrotation Xrotation
			JOINT RightLeg
			{
				OFFSET -0.484100 -32.551483 0.112903
				CHANNELS 3 Zrotation Yrotation Xrotation
				JOINT RightFoot
				{
					OFFSET -0.438985 -32.635651 -3.012681
					CHANNELS 3 Zrotation Yrotation Xrotation
					JOINT RightToeBase
					{
						OFFSET -0.970169 -13.225354 11.864223
						CHANNELS 3 Zrotation Yrotation Xrotation
						End Site
						{
							OFFSET 0.000000 0.000000 0.000000
						}
					}
				}
			}
		}
	}
	JOINT Spine_virtual
	{
		OFFSET 0.000000 0.000000 0.000000
		CHANNELS 3 Zrotation Yrotation Xrotation
		JOINT Spine
		{
			OFFSET 0.000000 7.722015 1.166203
			CHANNELS 3 Zrotation Yrotation Xrotation
			JOINT Spine1
			{
				OFFSET 0.000000 12.024086 0.248766
				CHANNELS 3 Zrotation Yrotation Xrotation
				JOINT Spine2
				{
					OFFSET -0.000000 11.503036 -0.491240
					CHANNELS 3 Zrotation Yrotation Xrotation
					JOINT Neck_virtual
					{
						OFFSET 0.000000 0.000000 0.000000
						CHANNELS 3 Zrotation Yrotation Xrotation
						JOINT Neck
						{
							OFFSET 0.000000 18.430687 -3.123054
							CHANNELS 3 Zrotation Yrotation Xrotation
							JOINT Head
							{
								OFFSET -0.000000 9.051071 1.034021
								CHANNELS 3 Zrotation Yrotation Xrotation
								End Site
								{
									OFFSET 0.000000 0.000000 0.000000
								}
							}
						}
					}
					JOINT LeftShoulder_virtual
					{
						OFFSET 0.000000 0.000000 0.000000
						CHANNELS 3 Zrotation Yrotation Xrotation
						JOINT LeftShoulder
						{
							OFFSET 6.197824 13.665230 -4.064723
							CHANNELS 3 Zrotation Yrotation Xrotation
							JOINT LeftArm
							{
								OFFSET 7.778132 -0.187073 -1.709282
								CHANNELS 3 Zrotation Yrotation Xrotation
								JOINT LeftForeArm
								{
									OFFSET 21.954697 0.000000 -2.041093
									CHANNELS 3 Zrotation Yrotation Xrotation
									JOINT LeftHand
									{
										OFFSET 22.992908 0.000000 -0.870901
										CHANNELS 3 Zrotation Yrotation Xrotation
										End Site
										{
											OFFSET 0.000000 0.000000 0.000000
										}
									}
								}
							}
						}
					}
					JOINT RightShoulder_virtual
					{
						OFFSET 0.000000 0.000000 0.000000
						CHANNELS 3 Zrotation Yrotation Xrotation
						JOINT RightShoulder
						{
							OFFSET -6.197824 13.665230 -4.064723
							CHANNELS 3 Zrotation Yrotation Xrotation
							JOINT RightArm
							{
								OFFSET -7.778132 -0.187073 -1.709282
								CHANNELS 3 Zrotation Yrotation Xrotation
								JOINT RightForeArm
								{
									OFFSET -21.954697 0.000000 -2.041093
									CHANNELS 3 Zrotation Yrotation Xrotation
									JOINT RightHand
									{
										OFFSET -22.992908 0.000000 -0.870901
										CHANNELS 3 Zrotation Yrotation Xrotation
										End Site
										{
											OFFSET 0.000000 0.000000 0.000000
										}
									}
								}
							}
						}
					}
				}
			}
		}
	}
}
MOTION
Frames: 7
Frame Time: 0.033333
-27.883062 80.297211 63.764885 -179.938424 18.505829 179.921471 -2.760394 -0.300573 6.285687 -7.309557 3.872791 -26.259475 9.584760 5.652455 33.148257 -1.115871 -8.866726 -11.180559 0.000000 0.000000 0.000000 0.308021 -0.104249 5.079388 -5.033134 -2.951471 -31.899688 -1.328181 4.177076 33.652786 9.283864 5.459749 -0.497426 0.000000 0.000000 0.000000 2.556920 1.616130 -3.664405 2.651032 -0.478651 -7.234417 -1.891597 -2.891475 9.963185 -0.028913 -0.027506 0.002510 -1.729123 -1.977580 9.902173 -1.574602 3.318909 4.011479 0.000000 0.000000 0.000000 0.007496 -1.657946 6.603456 5.301402 5.298226 -1.950735 -45.602680 -20.009861 -7.069767 -179.019518 -81.113011 -150.089924 0.000000 0.000000 0.000000 -4.621461 0.061849 5.889258 21.899528 3.721129 -0.709400 30.528412 10.866691 -16.169716 -36.567644 83.781259 -41.800023 0.000000 0.000000 0.000000 
-27.827667 80.304482 63.734581 -179.911472 18.535923 179.943629 -2.744746 -0.369375 6.256492 -7.289092 3.858325 -26.224996 9.636638 5.671454 33.201772 -1.153115 -8.891194 -11.187978 0.000000 0.000000 0.000000 0.337293 -0.110039 5.058422 -5.019533 -2.902868 -31.872945 -1.322300 4.175366 33.692459 9.240624 5.448165 -0.580461 0.000000 0.000000 0.000000 2.613434 1.578015 -3.627540 2.637552 -0.466978 -7.268540 -1.910333 -2.909502 9.942471 -0.011670 -0.039134 -0.011227 -1.772818 -1.986971 9.901807 -1.591987 3.312149 3.997007 0.000000 0.000000 0.000000 -0.019374 -1.700255 6.573420 5.445544 5.430406 -2.074557 -45.849940 -19.876282 -6.911821 -179.465802 -81.129247 -149.627069 0.000000 0.000000 0.000000 -4.680379 0.068471 5.945969 21.916479 3.643034 -0.752261 30.805608 11.012541 -16.264743 -36.584535 83.799038 -41.986191 0.000000 0.000000 0.000000 
-27.763681 80.308952 63.690975 -179.939790 18.646710 179.924367 -2.752462 -0.378572 6.293170 -7.214584 3.819229 -26.229837 9.671655 5.707473 33.277512 -1.132842 -8.871617 -11.241259 0.000000 0.000000 0.000000 0.335695 -0.145007 5.085974 -5.003541 -2.818294 -31.899494 -1.303645 4.198486 33.738594 9.180243 5.468769 -0.657686 0.000000 0.000000 0.000000 2.624461 1.582609 -3.474917 2.593045 -0.402929 -7.409430 -1.934215 -2.871122 9.953089 -0.026601 -0.009293 0.006719 -1.776597 -1.928627 9.896349 -1.526515 3.266850 4.008578 0.000000 0.000000 0.000000 -0.046490 -1.747310 6.631509 5.564134 5.403650 -1.935392 -45.905466 -19.925101 -7.007347 -179.418701 -81.080834 -149.667996 0.000000 0.000000 0.000000 -4.701904 0.036570 5.930159 22.092250 3.508935 -0.597251 30.983732 11.266744 -16.408312 -37.094231 83.755557 -42.667700 0.000000 0.000000 0.000000 
-27.680735 80.303047 63.625511 -179.908207 18.743921 -179.965499 -2.720713 -0.466655 6.298978 -7.185566 3.790146 -26.319944 9.688745 5.723819 33.349095 -1.107471 -8.866456 -11.344860 0.000000 0.000000 0.000000 0.391909 -0.242757 5.049049 -4.959328 -2.823023 -31.997394 -1.268689 4.225464 33.855421 9.147216 5.554529 -0.726965 0.000000 0.000000 0.000000 2.674990 1.488227 -3.514412 2.573963 -0.426752 -7.391071 -1.978505 -2.939016 9.906509 -0.035530 -0.061423 0.014429 -1.807120 -1.989208 9.959912 -1.522810 3.313842 4.027468 0.000000 0.000000 0.000000 -0.056759 -1.669239 6.646240 5.764967 5.478092 -1.848977 -45.980649 -19.846658 -6.981810 179.594196 -81.075814 -148.681935 0.000000 0.000000 0.000000 -4.708024 0.062454 6.036601 22.127130 3.491681 -0.611901 31.153709 11.554906 -16.686613 -35.176082 83.827683 -40.901772 0.000000 0.000000 0.000000 
-27.579233 80.301468 63.553150 -179.877991 18.847222 -179.960977 -2.669283 -0.541027 6.367896 -7.127016 3.792810 -26.326834 9.705017 5.718936 33.429975 -1.044085 -8.826231 -11.458870 0.000000 0.000000 0.000000 0.450823 -0.288305 5.079651 -4.939490 -2.851660 -32.008476 -1.191569 4.126776 34.020581 9.075537 5.650883 -0.817220 0.000000 0.000000 0.000000 2.708652 1.558000 -3.439080 2.570904 -0.408035 -7.398618 -1.996930 -2.974396 9.925073 -0.003027 -0.069854 -0.012816 -1.900109 -2.140655 9.989594 -1.500010 3.378774 4.039732 0.000000 0.000000 0.000000 -0.153304 -1.716282 6.670314 5.971237 5.513822 -1.958693 -46.087661 -19.803348 -7.031543 179.983544 -81.096509 -149.088372 0.000000 0.000000 0.000000 -4.818985 0.068607 6.037326 22.220805 3.414138 -0.577503 31.254317 11.729608 -16.818007 -35.356741 83.823428 -41.220728 0.000000 0.000000 0.000000 
-27.459524 80.301025 63.484627 -179.879152 18.880429 -179.968409 -2.658499 -0.642496 6.415837 -7.056126 3.765117 -26.278593 9.694802 5.741218 33.537079 -0.991724 -8.796019 -11.536103 0.000000 0.000000 0.000000 0.467410 -0.388619 5.038097 -4.896902 -2.904008 -32.056803 -1.125924 4.081407 34.222622 8.998291 5.754475 -0.899564 0.000000 0.000000 0.000000 2.724692 1.403758 -3.403554 2.581428 -0.339469 -7.370531 -2.025240 -2.943685 9.954463 -0.003286 -0.038736 0.018627 -1.930009 -2.124636 9.960546 -1.432036 3.329587 4.084650 0.000000 0.000000 0.000000 -0.202873 -1.763194 6.649374 6.155769 5.479176 -1.836414 -46.172215 -19.792517 -7.186197 179.647731 -81.134144 -148.776956 0.000000 0.000000 0.000000 -4.847395 0.037165 5.990922 22.289277 3.371332 -0.560911 31.300346 11.831912 -16.871730 -35.907182 83.834452 -41.849785 0.000000 0.000000 0.000000 
-27.316561 80.299789 63.411831 -179.945773 18.977315 179.934094 -2.664222 -0.646577 6.439673 -6.962335 3.737095 -26.163381 9.663069 5.755855 33.633948 -0.924009 -8.745417 -11.630717 0.000000 0.000000 0.000000 0.436395 -0.267046 5.004276 -4.769227 -3.319766 -32.019059 -1.051402 4.101445 34.494460 8.929110 5.893665 -1.050080 0.000000 0.000000 0.000000 2.690992 1.446620 -3.331055 2.583109 -0.287523 -7.299721 -2.051598 -2.940679 9.982847 0.048071 -0.026242 -0.003016 -1.993573 -2.104163 9.956660 -1.399538 3.313025 4.099125 0.000000 0.000000 0.000000 -0.270221 -1.787033 6.639474 6.319984 5.462406 -1.879354 -46.229364 -19.713908 -7.326676 179.763325 -81.179995 -148.926401 0.000000 0.000000 0.000000 -4.922498 0.015954 5.980672 22.296330 3.382850 -0.572298 31.274924 11.852440 -16.935302 -36.266863 83.913464 -42.260197 0.000000 0.000000 0.000000 
